<svg width="20" height="18" viewBox="0 0 20 18" fill="none" xmlns="http://www.w3.org/2000/svg">
<g clip-path="url(#clip0)">
<path d="M6.79989 4.81996C6.36509 4.78115 5.95096 4.61671 5.60799 4.34666C5.26501 4.07661 5.00799 3.71263 4.86827 3.29907C4.72854 2.8855 4.71213 2.44022 4.82104 2.0175C4.92996 1.59477 5.15949 1.21286 5.48166 0.918299C5.80383 0.623742 6.20473 0.429258 6.6355 0.358561C7.06626 0.287864 7.50829 0.344006 7.90771 0.520136C8.30713 0.696267 8.64669 0.984781 8.88501 1.35052C9.12332 1.71626 9.2501 2.14342 9.24989 2.57995C9.24863 3.05904 9.08666 3.52385 8.78989 3.89996L9.34989 4.77995H12.7199C12.8004 4.77973 12.8783 4.80808 12.9399 4.85995L16.3299 7.06996C16.3895 7.11067 16.4324 7.1715 16.4508 7.2413C16.4691 7.31109 16.4617 7.38519 16.4299 7.44996L16.1699 7.91995C16.1526 7.95 16.1292 7.97612 16.1012 7.99665C16.0733 8.01718 16.0414 8.03167 16.0075 8.03919C15.9736 8.04672 15.9386 8.04713 15.9046 8.04037C15.8705 8.03361 15.8383 8.01984 15.8099 7.99995L12.5599 5.87995H10.0599L11.9799 8.87995C12.008 8.92629 12.0283 8.97697 12.0399 9.02995L14.0399 12.23H18.4199C18.4627 12.2273 18.5057 12.2332 18.5462 12.2474C18.5867 12.2617 18.6239 12.2839 18.6556 12.3129C18.6874 12.3418 18.7129 12.3768 18.7308 12.4158C18.7488 12.4548 18.7586 12.497 18.7599 12.54V13.24C18.7547 13.3257 18.7163 13.4061 18.6528 13.464C18.5893 13.5219 18.5058 13.5527 18.4199 13.55H13.5199C13.4713 13.5507 13.4231 13.5413 13.3783 13.5223C13.3335 13.5034 13.2932 13.4753 13.2599 13.44C13.2193 13.4148 13.1851 13.3806 13.1599 13.34L11.0799 10.04L10.8899 10.1399L8.25989 12.54L7.25989 16.65C7.23639 16.7334 7.18189 16.8048 7.10754 16.8494C7.03318 16.894 6.94459 16.9085 6.85989 16.8899L6.19989 16.7499C6.15793 16.744 6.11763 16.7295 6.08149 16.7074C6.04535 16.6852 6.01413 16.6559 5.98976 16.6213C5.9654 16.5866 5.9484 16.5473 5.93982 16.5058C5.93124 16.4643 5.93126 16.4214 5.93989 16.38L7.00989 11.98C7.02158 11.9334 7.04394 11.8902 7.07517 11.8538C7.10641 11.8173 7.14567 11.7886 7.18989 11.77L9.72989 9.44996L7.64989 6.14996L4.35989 6.60995C4.2857 6.63753 4.20407 6.63753 4.12989 6.60995L0.519888 4.89996C0.451267 4.86725 0.397053 4.81047 0.367554 4.74041C0.338055 4.67035 0.335328 4.59189 0.359888 4.51995L0.549887 4.00996C0.562705 3.97711 0.582327 3.94735 0.607464 3.92262C0.632601 3.89789 0.662684 3.87876 0.695738 3.86648C0.728793 3.8542 0.764071 3.84905 0.799256 3.85137C0.83444 3.8537 0.868734 3.86344 0.899887 3.87995L4.34989 5.51995L6.97989 5.14996L6.79989 4.81996Z" stroke="#5C8ACE" stroke-width="0.66" stroke-linecap="round" stroke-linejoin="round"/>
</g>
<defs>
<clipPath id="clip0">
<rect width="19.12" height="17.2" fill="white"/>
</clipPath>
</defs>
</svg>
