<svg id="Layer_1" data-name="Layer 1" xmlns="http://www.w3.org/2000/svg" viewBox="0 0 19.12 17.2"><defs><style>.cls-1{fill:none;stroke:#d1d3d9;stroke-linecap:round;stroke-linejoin:round;stroke-width:0.66px;}</style></defs><title>actions</title><path class="cls-1" d="M37.8,201.58a2.25,2.25,0,1,1,2.45-2.24,2.14,2.14,0,0,1-.46,1.32l0.56,0.88,3.37,0a0.34,0.34,0,0,1,.22.08l3.39,2.21a0.3,0.3,0,0,1,.1.38l-0.26.47a0.25,0.25,0,0,1-.36.08l-3.25-2.12-2.5,0,1.92,3a0.49,0.49,0,0,1,.06.15l2,3.2h4.38a0.32,0.32,0,0,1,.34.31V210a0.33,0.33,0,0,1-.34.31H44.52a0.35,0.35,0,0,1-.26-0.11,0.31,0.31,0,0,1-.1-0.1l-2.08-3.3-0.19.1-2.63,2.4-1,4.11a0.34,0.34,0,0,1-.4.24l-0.66-.14a0.31,0.31,0,0,1-.26-0.37l1.07-4.4a0.31,0.31,0,0,1,.18-0.21l2.54-2.32-2.08-3.3-3.29.46a0.33,0.33,0,0,1-.23,0l-3.61-1.71a0.31,0.31,0,0,1-.16-0.38l0.19-.51a0.25,0.25,0,0,1,.35-0.13l3.45,1.64,2.63-.37Z" transform="translate(-31 -196.76)"/></svg>