<svg width="18" height="13" viewBox="0 0 18 13" fill="none" xmlns="http://www.w3.org/2000/svg">
<g clip-path="url(#clip0)">
<path d="M8.67986 7.43008C10.0992 7.43008 11.2499 5.84069 11.2499 3.88008C11.2499 1.91947 10.0992 0.330078 8.67986 0.330078C7.26049 0.330078 6.10986 1.91947 6.10986 3.88008C6.10986 5.84069 7.26049 7.43008 8.67986 7.43008Z" stroke="#5C8ACE" stroke-width="0.66" stroke-linecap="round" stroke-linejoin="round"/>
<path d="M3.7201 8.09004C4.47673 8.09004 5.0901 7.23938 5.0901 6.19004C5.0901 5.1407 4.47673 4.29004 3.7201 4.29004C2.96347 4.29004 2.3501 5.1407 2.3501 6.19004C2.3501 7.23938 2.96347 8.09004 3.7201 8.09004Z" stroke="#5C8ACE" stroke-width="0.66" stroke-linecap="round" stroke-linejoin="round"/>
<path d="M14.0199 8.09004C14.7765 8.09004 15.3899 7.23938 15.3899 6.19004C15.3899 5.1407 14.7765 4.29004 14.0199 4.29004C13.2633 4.29004 12.6499 5.1407 12.6499 6.19004C12.6499 7.23938 13.2633 8.09004 14.0199 8.09004Z" stroke="#5C8ACE" stroke-width="0.66" stroke-linecap="round" stroke-linejoin="round"/>
<path d="M4.68994 12.5901C4.68994 12.5201 4.68994 12.4501 4.68994 12.3801C4.76266 11.337 5.22833 10.3603 5.99297 9.64716C6.75762 8.93396 7.76432 8.53735 8.80994 8.53735C9.85557 8.53735 10.8623 8.93396 11.6269 9.64716C12.3916 10.3603 12.8572 11.337 12.9299 12.3801C12.9299 12.4501 12.9299 12.5201 12.9299 12.5901H4.68994Z" stroke="#5C8ACE" stroke-width="0.66" stroke-linecap="round" stroke-linejoin="round"/>
<path d="M2.02008 8.47998C1.51881 8.90153 1.10152 9.4138 0.790081 9.98997C0.59727 10.3528 0.443089 10.7349 0.330078 11.13H3.91008" stroke="#5C8ACE" stroke-width="0.66" stroke-linecap="round" stroke-linejoin="round"/>
<path d="M15.6 8.1499C16.1002 8.56849 16.5175 9.07731 16.83 9.6499C17.0226 10.0128 17.1768 10.3949 17.29 10.7899H13.71" stroke="#5C8ACE" stroke-width="0.66" stroke-linecap="round" stroke-linejoin="round"/>
<path d="M5.29004 8.23999L5.90004 8.71999" stroke="#5C8ACE" stroke-width="0.66" stroke-linecap="round" stroke-linejoin="round"/>
<path d="M12.1002 8.23999L11.4902 8.71999" stroke="#5C8ACE" stroke-width="0.66" stroke-linecap="round" stroke-linejoin="round"/>
</g>
<defs>
<clipPath id="clip0">
<rect width="17.62" height="12.91" fill="white"/>
</clipPath>
</defs>
</svg>
