<svg id="Layer_1" data-name="Layer 1" xmlns="http://www.w3.org/2000/svg" viewBox="0 0 17.62 12.91"><defs><style>.cls-1{fill:none;stroke:#d1d3d9;stroke-linecap:round;stroke-linejoin:round;stroke-width:0.66px;}</style></defs><title>customers-icon</title><ellipse class="cls-1" cx="8.68" cy="3.88" rx="2.57" ry="3.55"/><ellipse class="cls-1" cx="3.72" cy="6.19" rx="1.37" ry="1.9"/><ellipse class="cls-1" cx="14.02" cy="6.19" rx="1.37" ry="1.9"/><path class="cls-1" d="M37.37,178.11c0-.07,0-0.14,0-0.21a4.13,4.13,0,0,1,8.24,0c0,0.07,0,.14,0,0.21H37.37Z" transform="translate(-32.68 -165.52)"/><path class="cls-1" d="M34.7,174a5.21,5.21,0,0,0-1.23,1.51,5.87,5.87,0,0,0-.46,1.14l3.58,0" transform="translate(-32.68 -165.52)"/><path class="cls-1" d="M48.28,173.67a5.21,5.21,0,0,1,1.23,1.5,5.89,5.89,0,0,1,.46,1.14l-3.58,0" transform="translate(-32.68 -165.52)"/><line class="cls-1" x1="5.29" y1="8.24" x2="5.9" y2="8.72"/><line class="cls-1" x1="12.1" y1="8.24" x2="11.49" y2="8.72"/></svg>