<svg width="16" height="13" viewBox="0 0 16 13" fill="none" xmlns="http://www.w3.org/2000/svg">
<g clip-path="url(#clip0)">
<path d="M3.13008 0.350078L13.4101 12.1001L2.58008 12.0501L13.0601 0.330078L3.13008 0.350078Z" stroke="#5C8ACE" stroke-width="0.66" stroke-linecap="round" stroke-linejoin="round"/>
<path d="M13.0198 10.1601L12.1398 9.2601C12.5784 8.78681 12.9183 8.2309 13.1398 7.62483C13.3613 7.01876 13.4599 6.37467 13.4298 5.7301C13.4089 5.29444 13.3281 4.86371 13.1898 4.45009L12.0098 4.9301L13.0098 2.59009L15.5698 3.4901L14.4198 3.9601C14.6226 4.51248 14.7406 5.09239 14.7698 5.6801C14.8029 6.50716 14.6645 7.33213 14.3633 8.10312C14.0621 8.87411 13.6047 9.57445 13.0198 10.1601V10.1601Z" stroke="#5C8ACE" stroke-width="0.66" stroke-linecap="round" stroke-linejoin="round"/>
<path d="M3.14983 2.15991L3.97982 3.09991C3.06761 4.00951 2.55029 5.24174 2.53983 6.52991C2.53992 6.96616 2.6005 7.4003 2.71983 7.81992L3.91983 7.38991L2.82983 9.68991L0.319824 8.68991L1.48983 8.26991C1.31604 7.70974 1.22837 7.12642 1.22982 6.53992C1.23247 5.71722 1.40428 4.90384 1.73458 4.15034C2.06487 3.39685 2.5466 2.71935 3.14983 2.15991V2.15991Z" stroke="#5C8ACE" stroke-width="0.66" stroke-linecap="round" stroke-linejoin="round"/>
</g>
<defs>
<clipPath id="clip0">
<rect width="15.84" height="12.43" fill="white"/>
</clipPath>
</defs>
</svg>
