<svg id="Layer_1" data-name="Layer 1" xmlns="http://www.w3.org/2000/svg" viewBox="0 0 15.84 12.43"><defs><style>.cls-1{fill:none;stroke:#d1d3d9;stroke-linecap:round;stroke-linejoin:round;stroke-width:0.66px;}</style></defs><title>history-icon</title><polygon class="cls-1" points="3.13 0.35 13.41 12.1 2.58 12.05 13.06 0.33 3.13 0.35"/><path class="cls-1" d="M46.59,142l-0.88-.9A4.86,4.86,0,0,0,47,137.57a4.75,4.75,0,0,0-.24-1.28l-1.18.48,1-2.34,2.56,0.9-1.15.47a5.83,5.83,0,0,1,.35,1.72A6,6,0,0,1,46.59,142Z" transform="translate(-33.57 -131.84)"/><path class="cls-1" d="M36.72,134l0.83,0.94a4.9,4.9,0,0,0-1.44,3.43,4.72,4.72,0,0,0,.18,1.29l1.2-.43-1.09,2.3-2.51-1,1.17-.42a5.79,5.79,0,0,1-.26-1.73A6,6,0,0,1,36.72,134Z" transform="translate(-33.57 -131.84)"/></svg>