<svg id="Layer_1" data-name="Layer 1" xmlns="http://www.w3.org/2000/svg" viewBox="0 0 17.89 14"><defs><style>.cls-1{fill:none;stroke:#d1d3d9;stroke-linecap:round;stroke-linejoin:round;stroke-width:0.66px;}</style></defs><title>new-service-icon</title><path class="cls-1" d="M50.1,103.81a3.18,3.18,0,0,1-1.47,2.84,3,3,0,0,1-3.34,0l-10.92,7a0.57,0.57,0,0,1-.79-0.19l-0.61-1a0.6,0.6,0,0,1,.18-0.81l10.92-7a3.17,3.17,0,0,1,1.45-3.08,3.05,3.05,0,0,1,2.83-.27L45.91,103l0,1.81,1.76,0.51Z" transform="translate(-32.55 -100.74)"/><path class="cls-1" d="M34.35,109.78a6.44,6.44,0,0,1,6.13-8.24,6.31,6.31,0,0,1,2.83.67,11.64,11.64,0,0,0-.62,1.86,4.4,4.4,0,0,0-2.17-.57A4.48,4.48,0,0,0,36.06,108a4.56,4.56,0,0,0,.05.69ZM45,107.9a7.9,7.9,0,0,0,1.87.44,6.41,6.41,0,0,1-6.37,6.07,6.32,6.32,0,0,1-3.77-1.25L38.53,112a4.41,4.41,0,0,0,2,.47A4.48,4.48,0,0,0,45,108S45,107.93,45,107.9Z" transform="translate(-32.55 -100.74)"/></svg>