<svg width="18" height="14" viewBox="0 0 18 14" fill="none" xmlns="http://www.w3.org/2000/svg">
<g clip-path="url(#clip0)">
<path d="M17.5499 3.06997C17.5775 3.631 17.4561 4.18935 17.1978 4.6882C16.9396 5.18704 16.5539 5.6086 16.0799 5.90997C15.5859 6.24102 15.0046 6.41776 14.4099 6.41776C13.8152 6.41776 13.2339 6.24102 12.7399 5.90997L1.81988 12.91C1.75571 12.95 1.68422 12.9768 1.60957 12.9889C1.53492 13.001 1.45861 12.9981 1.38509 12.9804C1.31156 12.9628 1.24229 12.9306 1.18131 12.8859C1.12033 12.8412 1.06886 12.7848 1.02989 12.72L0.419887 11.72C0.339767 11.5878 0.313763 11.4297 0.347297 11.2788C0.380831 11.1279 0.471317 10.9958 0.599887 10.91L11.5199 3.90997C11.4436 3.31184 11.5395 2.70437 11.7964 2.15882C12.0532 1.61328 12.4603 1.1523 12.9699 0.829972C13.3842 0.558555 13.8584 0.392129 14.3515 0.345086C14.8446 0.298043 15.3417 0.371802 15.7999 0.559976L13.3599 2.25997V4.06997L15.1199 4.57997L17.5499 3.06997Z" stroke="#5C8ACE" stroke-width="0.66" stroke-linecap="round" stroke-linejoin="round"/>
<path d="M1.80019 9.04005C1.52204 8.0847 1.46906 7.07789 1.64538 6.09862C1.8217 5.11935 2.22254 4.19425 2.81645 3.39592C3.41035 2.59759 4.18117 1.94774 5.06841 1.49734C5.95566 1.04695 6.93521 0.808279 7.93019 0.800049C8.91282 0.799983 9.88189 1.02941 10.7602 1.47005C10.5016 2.07151 10.2942 2.69371 10.1402 3.33005C9.47826 2.95572 8.73063 2.75934 7.97019 2.76005C7.38187 2.76267 6.79982 2.88115 6.25728 3.10871C5.71475 3.33628 5.22234 3.66848 4.80819 4.08634C4.39404 4.50421 4.06625 4.99955 3.84354 5.5441C3.62083 6.08864 3.50756 6.67172 3.51019 7.26005C3.50936 7.49098 3.52607 7.72165 3.56019 7.95005L1.80019 9.04005ZM12.4502 7.16005C13.0533 7.38224 13.6813 7.52999 14.3202 7.60004C14.2334 9.23358 13.5254 10.7721 12.3412 11.9006C11.1569 13.0291 9.58601 13.6621 7.95019 13.6701C6.59185 13.6694 5.26987 13.231 4.18019 12.4201L5.98019 11.26C6.60056 11.572 7.28582 11.733 7.98019 11.73C9.16489 11.7274 10.3003 11.2556 11.138 10.4179C11.9758 9.58018 12.4475 8.44475 12.4502 7.26005C12.4502 7.26005 12.4502 7.19005 12.4502 7.16005Z" stroke="#5C8ACE" stroke-width="0.66" stroke-linecap="round" stroke-linejoin="round"/>
</g>
<defs>
<clipPath id="clip0">
<rect width="17.89" height="14" fill="white"/>
</clipPath>
</defs>
</svg>
