<svg width="556" height="555" viewBox="0 0 556 555" fill="none" xmlns="http://www.w3.org/2000/svg">
<path d="M546 277.5C546 425.219 426.029 545 278 545C129.971 545 10 425.219 10 277.5C10 129.781 129.971 10 278 10C426.029 10 546 129.781 546 277.5Z" fill="black" stroke="black" stroke-width="20"/>
<path fill-rule="evenodd" clip-rule="evenodd" d="M361.562 217.909H314.18L354.282 115.925L371.745 74C412.72 95.7558 446.369 129.106 468.481 169.879C490.594 210.652 500.189 257.038 496.067 303.234H323.975L313.817 326.784L313.527 327.389L250.592 483H202L274.15 308.07L294.395 259.472H341.777H450.474C445.093 214.501 423.912 172.901 390.708 142.086L361.683 217.692L361.562 217.909Z" fill="#358CFF"/>
<path fill-rule="evenodd" clip-rule="evenodd" d="M285.845 248.375L265.599 297.084H218.189H109.532C114.902 342.16 136.086 383.858 169.303 414.735L198.33 338.958H245.788L205.707 440.98L188.243 483C147.265 461.19 113.617 427.759 91.5065 386.888C69.3964 346.018 59.8065 299.524 63.9366 253.222H236.113L246.272 229.594L246.562 228.989L309.453 73H358L285.845 248.375Z" fill="#565D66"/>
</svg>
