<svg width="703" height="304" viewBox="0 0 703 304" fill="none" xmlns="http://www.w3.org/2000/svg">
<path fill-rule="evenodd" clip-rule="evenodd" d="M221.508 107.177H186.357L216.107 31.491L229.063 0.376831C259.461 16.5226 284.423 41.2731 300.828 71.5323C317.233 101.792 324.351 136.216 321.293 170.5H193.624L186.088 187.977L185.872 188.426L139.183 303.91H103.135L156.66 174.089L171.679 138.022H206.83H287.469C283.477 104.648 267.764 73.7749 243.13 50.9059L221.598 107.015L221.508 107.177Z" fill="#358CFF"/>
<path d="M214.223 277.156L228.022 275.039C228.373 277.358 229.529 279.48 231.288 281.032C233.324 282.357 235.735 282.986 238.16 282.827C240.965 282.915 243.735 282.179 246.127 280.709C246.801 280.336 247.386 279.822 247.844 279.203C248.302 278.584 248.622 277.874 248.783 277.121C248.88 276.689 248.884 276.242 248.794 275.808C248.704 275.375 248.523 274.966 248.262 274.609C246.725 273.382 244.945 272.495 243.041 272.007C235.229 269.243 230.486 267.06 228.811 265.457C227.517 264.217 226.578 262.652 226.092 260.926C225.606 259.2 225.591 257.376 226.048 255.642C226.903 251.486 229.228 247.778 232.597 245.199C237.598 241.12 244.237 239.08 252.515 239.08C259.094 239.08 263.837 240.276 266.744 242.669C268.179 243.858 269.328 245.354 270.107 247.047C270.887 248.739 271.277 250.585 271.248 252.448L258.059 254.655C257.959 253.827 257.689 253.028 257.266 252.308C256.843 251.589 256.276 250.965 255.601 250.474C253.489 249.171 251.028 248.545 248.549 248.68C246.284 248.532 244.023 249.036 242.036 250.133C241.411 250.489 240.864 250.965 240.426 251.536C239.988 252.106 239.669 252.758 239.488 253.453C239.357 254.053 239.412 254.678 239.646 255.246C239.88 255.813 240.282 256.296 240.798 256.629C243.092 257.77 245.497 258.672 247.975 259.321C254.339 261.282 258.472 263.208 260.374 265.098C261.666 266.305 262.619 267.831 263.135 269.522C263.652 271.214 263.714 273.011 263.317 274.734C262.168 279.858 259.106 284.351 254.758 287.295C249.419 291.048 242.994 292.94 236.473 292.678C229.092 292.678 223.65 291.32 220.145 288.604C218.394 287.231 216.955 285.502 215.922 283.532C214.889 281.562 214.286 279.395 214.151 277.174L214.223 277.156Z" fill="#358CFF"/>
<path d="M268.538 270.23C269.971 261.485 274.345 253.49 280.937 247.568C287.183 242.003 295.29 238.987 303.654 239.116C311.19 239.116 316.675 241.198 320.108 245.36C323.541 249.523 324.57 255.116 323.194 262.138C321.6 270.439 317.349 277.997 311.083 283.67C304.877 289.568 296.603 292.79 288.043 292.642C283.781 292.774 279.559 291.777 275.805 289.753C272.601 287.983 270.194 285.056 269.077 281.571C267.926 277.893 267.741 273.982 268.538 270.212V270.212V270.23ZM309.809 260.361C310.178 259.031 310.25 257.636 310.021 256.275C309.791 254.914 309.266 253.62 308.481 252.484C307.664 251.48 306.619 250.688 305.432 250.172C304.246 249.657 302.953 249.435 301.662 249.523C298.615 249.54 295.648 250.506 293.175 252.287C290.269 254.397 287.887 257.148 286.213 260.325C284.441 263.34 283.157 266.617 282.409 270.033C281.997 271.495 281.899 273.028 282.121 274.531C282.344 276.035 282.882 277.473 283.701 278.754C284.49 279.823 285.533 280.678 286.736 281.242C287.939 281.806 289.264 282.061 290.591 281.983C292.577 281.933 294.533 281.476 296.335 280.639C298.138 279.803 299.749 278.605 301.07 277.121C305.611 272.546 308.657 266.703 309.809 260.361V260.361V260.361Z" fill="#358CFF"/>
<path d="M317.991 291.475L346.485 220.885H360.266L331.808 291.475H317.991Z" fill="#358CFF"/>
<path d="M360.912 240.336H374.729L362.527 270.625C361.552 272.829 360.725 275.095 360.051 277.408C359.891 278.068 359.889 278.756 360.045 279.417C360.201 280.078 360.51 280.693 360.948 281.212C361.429 281.756 362.028 282.183 362.7 282.46C363.372 282.737 364.099 282.856 364.824 282.809C366.105 282.797 367.375 282.561 368.574 282.109C370.009 281.564 371.376 280.853 372.647 279.992C374.085 279.044 375.425 277.956 376.648 276.744C378.07 275.287 379.322 273.674 380.381 271.935C381.677 269.627 382.804 267.228 383.754 264.757L393.587 240.39H407.404L386.805 291.457H373.903L376.702 284.531C370.003 289.95 363.328 292.666 356.677 292.678C352.467 292.678 349.392 291.481 347.454 289.089C346.447 287.716 345.763 286.133 345.452 284.458C345.141 282.784 345.212 281.061 345.66 279.417C346.622 275.814 347.851 272.287 349.338 268.867L360.858 240.354L360.912 240.336Z" fill="#358CFF"/>
<path d="M410.903 250.582L415.012 240.318H421.759L425.024 232.136L442.717 222.608L435.539 240.318H443.973L439.864 250.582H431.394L422.692 272.007C421.137 275.894 420.305 278.107 420.198 278.646C420.073 279.069 420.055 279.517 420.146 279.949C420.237 280.381 420.433 280.784 420.718 281.122C421.722 281.853 422.967 282.174 424.199 282.019C424.809 282.019 426.352 281.905 428.828 281.678L424.666 291.924C422.206 292.404 419.707 292.645 417.201 292.642C412.32 292.642 408.959 291.703 407.117 289.825C406.177 288.781 405.518 287.515 405.204 286.146C404.89 284.777 404.931 283.35 405.322 282.001C406.368 278.291 407.669 274.658 409.216 271.127L417.488 250.564H410.795L410.903 250.582Z" fill="#358CFF"/>
<path d="M459.637 220.885H473.454L468.412 233.446H454.595L459.637 220.885ZM451.814 240.336H465.63L444.995 291.475H431.179L451.814 240.336Z" fill="#358CFF"/>
<path d="M462.472 270.23C463.912 261.488 468.293 253.499 474.889 247.585C481.136 242.023 489.243 239.007 497.606 239.134C505.154 239.134 510.639 241.215 514.06 245.378C517.481 249.541 518.51 255.134 517.147 262.156C515.551 270.457 511.3 278.014 505.035 283.688C498.828 289.584 490.554 292.806 481.995 292.66C477.727 292.795 473.498 291.798 469.74 289.771C466.535 288.001 464.128 285.074 463.011 281.588C461.859 277.911 461.673 274 462.472 270.23V270.23V270.23ZM503.743 260.361C504.112 259.031 504.185 257.636 503.955 256.275C503.726 254.914 503.2 253.62 502.415 252.484C501.599 251.48 500.553 250.688 499.367 250.172C498.18 249.657 496.887 249.435 495.596 249.523C492.549 249.541 489.583 250.507 487.109 252.287C484.203 254.397 481.821 257.148 480.147 260.325C478.375 263.34 477.091 266.617 476.343 270.033C475.931 271.495 475.833 273.028 476.055 274.531C476.278 276.034 476.816 277.473 477.635 278.753C478.425 279.821 479.469 280.676 480.672 281.24C481.874 281.804 483.199 282.059 484.525 281.983C486.512 281.934 488.467 281.477 490.27 280.641C492.073 279.804 493.684 278.606 495.004 277.121C499.545 272.546 502.592 266.703 503.743 260.361V260.361V260.361Z" fill="#358CFF"/>
<path d="M533.403 240.336H546.502L543.865 246.975C547.041 244.523 550.521 242.49 554.218 240.928C557.188 239.748 560.353 239.14 563.549 239.134C567.759 239.134 570.84 240.33 572.79 242.723C573.795 244.079 574.479 245.647 574.79 247.307C575.101 248.967 575.03 250.676 574.584 252.305C573.654 255.796 572.454 259.209 570.995 262.515L559.35 291.457H545.533L557.268 262.425C558.364 259.896 559.316 257.308 560.121 254.673C560.323 253.968 560.36 253.226 560.229 252.504C560.098 251.782 559.804 251.1 559.368 250.51C558.849 249.969 558.216 249.55 557.514 249.286C556.812 249.022 556.06 248.919 555.313 248.985C552.737 249.186 550.261 250.065 548.135 251.533C545.294 253.251 542.848 255.55 540.958 258.28C538.621 262.141 536.668 266.222 535.126 270.463L526.657 291.457H512.84L533.475 240.318L533.403 240.336Z" fill="#358CFF"/>
<path d="M570.421 277.156L584.22 275.039C584.571 277.358 585.727 279.48 587.485 281.032C589.522 282.357 591.933 282.986 594.358 282.827C597.163 282.915 599.933 282.179 602.325 280.709C602.998 280.336 603.584 279.822 604.042 279.203C604.5 278.584 604.82 277.874 604.98 277.121C605.078 276.689 605.082 276.242 604.992 275.808C604.902 275.375 604.721 274.966 604.46 274.609C602.922 273.383 601.143 272.497 599.239 272.007C591.427 269.243 586.684 267.06 585.009 265.457C583.715 264.217 582.776 262.652 582.29 260.926C581.804 259.2 581.789 257.376 582.246 255.642C583.101 251.486 585.426 247.778 588.795 245.199C593.796 241.12 600.435 239.08 608.713 239.08C615.292 239.08 620.035 240.276 622.942 242.669C624.377 243.858 625.526 245.354 626.305 247.047C627.085 248.739 627.475 250.585 627.446 252.448L614.257 254.655C614.156 253.827 613.886 253.028 613.463 252.309C613.04 251.59 612.474 250.965 611.799 250.474C609.687 249.171 607.226 248.545 604.747 248.68C602.482 248.532 600.221 249.036 598.234 250.133C597.609 250.489 597.061 250.965 596.624 251.536C596.186 252.106 595.867 252.758 595.686 253.453C595.555 254.053 595.61 254.678 595.844 255.246C596.078 255.813 596.48 256.296 596.996 256.629C599.29 257.77 601.695 258.672 604.173 259.321C610.537 261.282 614.67 263.208 616.572 265.098C617.864 266.305 618.816 267.831 619.333 269.522C619.849 271.214 619.912 273.011 619.515 274.734C618.365 279.858 615.304 284.351 610.956 287.295C605.617 291.048 599.192 292.94 592.671 292.678C585.29 292.678 579.847 291.32 576.343 288.604C574.592 287.231 573.153 285.502 572.12 283.532C571.087 281.562 570.484 279.395 570.349 277.174V277.174L570.421 277.156Z" fill="#358CFF"/>
<path fill-rule="evenodd" clip-rule="evenodd" d="M165.309 129.858L150.29 165.924H115.121H34.5184C38.5016 199.301 54.216 230.177 78.857 253.04L100.389 196.931H135.595L105.862 272.473L92.9068 303.587C62.509 287.438 37.548 262.683 21.1465 232.421C4.74491 202.158 -2.36896 167.731 0.69476 133.446H128.417L135.953 115.951L136.169 115.503L182.822 0H218.835L165.309 129.858Z" fill="#565D66"/>
<path d="M617.254 304L645.838 231.006H655.456L626.943 304H617.254Z" fill="#565D66"/>
<path d="M220.163 237.842L214.205 252.735L181.566 264.345L205.431 274.608L200.532 286.846L163.497 269.746L168.019 258.675L220.163 237.842Z" fill="#565D66"/>
<path d="M666.168 242.256L702.827 259.339L698.879 270.32L646.484 291.35L652.423 276.528L685.386 264.488L661.305 254.368L666.168 242.256Z" fill="#565D66"/>
</svg>
