<svg width="48" height="48" viewBox="0 0 48 48" fill="none" xmlns="http://www.w3.org/2000/svg">
<path d="M23.9 47.8C10.7 47.8 0 37.1 0 23.9C0 10.7 10.7 0 23.9 0C37.1 0 47.8 10.7 47.8 23.9C47.8 37.1 37.1 47.8 23.9 47.8ZM23.9 2.60001C12.2 2.60001 2.6 12.2 2.6 23.9C2.6 35.6 12.2 45.2 23.9 45.2C35.6 45.2 45.2 35.6 45.2 23.9C45.2 12.2 35.6 2.60001 23.9 2.60001Z" fill="white"/>
<path d="M11.2 22.5H36.6V25.3H11.2V22.5Z" fill="white"/>
<path d="M22.5 11.2002H25.3V36.6002H22.5V11.2002Z" fill="white"/>
</svg>
