<svg width="1133" height="459" viewBox="0 0 1133 459" fill="none" xmlns="http://www.w3.org/2000/svg">
<path d="M57.9042 440.089H710.046C710.046 440.089 679.647 392.962 676.606 330.639C673.57 268.31 711.567 196.866 711.567 196.866H97.4282C97.4282 196.866 16.1082 220.435 8.49921 287.311C0.90021 354.202 9.26221 388.401 21.4222 411.207C33.5832 434.011 57.9042 440.089 57.9042 440.089Z" fill="white"/>
<path d="M964.929 10.394C964.929 10.394 943.645 53.974 950.742 95.523C957.836 137.072 977.09 160.385 977.09 160.385L709.546 445.16C709.546 445.16 664.955 388.399 674.079 314.425C683.198 240.446 702.457 197.88 702.457 197.88L964.929 10.394Z" fill="#ADADAD"/>
<path d="M973.038 152.78L707.515 432.715C705.885 432.591 702.277 432.49 694.849 432.49C674.328 432.49 51.064 419.19 51.064 419.19C51.064 419.19 37.6401 400.565 27.5011 371.176C17.3711 341.782 17.543 293.24 36.12 264.257C61.461 224.738 90.335 215.614 105.537 211.557C107.758 210.967 129.639 207.871 136.203 207.256C200.753 205.907 308.454 199.905 407.541 199.905C561.077 199.905 703.969 201.426 703.969 201.426C703.969 201.426 988.946 19.0521 971.517 3.80706C965.43 -1.51494 926.288 0.768061 892.466 0.768061C862.92 0.768061 437.99 0.476069 437.99 0.476069L77.6681 204.469C53.3521 213.079 24.983 234.869 10.792 263.748C-3.39896 292.631 -2.89896 372.697 16.36 409.18C35.614 445.671 50.3061 442.12 70.5851 442.625C90.8551 443.13 695.608 463.652 712.331 456.812C729.054 449.972 989.752 169.503 986.715 161.902C983.673 154.305 973.038 152.78 973.038 152.78Z" fill="#5486C5"/>
<path d="M62.0731 347.604C65.6431 349.587 71.7311 351.042 76.7551 351.042C84.9591 351.042 88.925 346.81 88.925 340.988C88.925 334.51 84.9591 331.335 77.4171 326.439C65.2471 319.032 60.6181 309.64 60.6181 301.569C60.6181 287.283 70.1421 275.375 88.7961 275.375C94.6171 275.375 100.17 276.963 102.816 278.55L100.037 293.499C97.525 291.912 93.6871 290.458 88.6631 290.458C81.2551 290.458 77.6841 294.953 77.6841 299.716C77.6841 305.007 80.33 307.786 89.983 313.607C101.758 320.753 106.124 329.749 106.124 339.139C106.124 355.41 94.087 366.125 76.626 366.125C69.48 366.125 62.4681 364.271 59.5601 362.555L62.0731 347.604Z" fill="#4E596B"/>
<path d="M130.194 339.138C130.456 349.192 136.277 352.896 143.951 352.896C148.842 352.896 153.209 351.838 156.25 350.78L158.633 363.212C154.133 364.934 147.388 366.125 140.776 366.125C123.181 366.125 113.523 354.483 113.523 334.243C113.523 312.548 124.769 299.587 139.451 299.587C153.342 299.587 161.413 310.566 161.413 330.144C161.413 334.773 161.279 337.285 160.884 339.139H130.194V339.138ZM145.667 326.968C145.667 318.635 143.55 312.153 138.393 312.153C132.706 312.153 130.456 320.485 130.322 326.968H145.667Z" fill="#4E596B"/>
<path d="M171.062 320.089C171.062 313.606 170.795 306.594 170.533 300.645H185.611L186.536 310.036H186.936C189.844 303.157 195.002 299.587 199.764 299.587C201.485 299.587 202.41 299.587 203.468 299.849V317.048C202.409 316.782 201.222 316.782 199.764 316.782C196.06 316.782 191.169 319.294 189.181 326.044C188.785 327.498 188.523 329.748 188.523 332.523V365.33H171.062V320.089V320.089Z" fill="#4E596B"/>
<path d="M225.949 300.645L230.845 329.481C231.77 335.301 232.695 341.122 233.619 347.604H233.886C234.678 340.988 235.474 335.568 236.399 329.481L241.428 300.645H258.489L241.161 365.329H225.153L207.563 300.645H225.949Z" fill="#4E596B"/>
<path d="M282.557 283.445C282.691 289.003 278.72 292.836 273.429 292.836C268.666 292.836 264.7 289.003 264.833 283.445C264.7 277.625 268.933 274.053 273.695 274.053C278.72 274.054 282.557 277.625 282.557 283.445ZM265.229 365.328V300.644H282.557V365.328H265.229Z" fill="#4E596B"/>
<path d="M330.575 364.27C328.854 365.066 324.488 366.124 319.592 366.124C303.189 366.124 292.478 354.745 292.478 333.58C292.478 313.605 304.248 299.715 322.11 299.715C326.21 299.715 329.913 300.645 331.634 301.436L329.384 315.06C327.93 314.531 325.813 313.873 322.901 313.873C314.568 313.873 309.672 321.81 309.672 333.051C309.672 344.825 314.568 351.971 322.639 351.971C325.151 351.971 327.267 351.571 329.117 350.646L330.575 364.27Z" fill="#4E596B"/>
<path d="M351.865 339.138C352.132 349.192 357.952 352.896 365.622 352.896C370.518 352.896 374.885 351.838 377.926 350.78L380.305 363.212C375.81 364.934 369.065 366.125 362.448 366.125C344.853 366.125 335.2 354.483 335.2 334.243C335.2 312.548 346.44 299.587 361.128 299.587C375.015 299.587 383.085 310.566 383.085 330.144C383.085 334.773 382.951 337.285 382.556 339.139H351.865V339.138ZM367.344 326.968C367.344 318.635 365.227 312.153 360.069 312.153C354.378 312.153 352.132 320.485 351.999 326.968H367.344Z" fill="#4E596B"/>
<path d="M415.48 277.49C420.771 276.303 427.65 275.775 435.192 275.775C443.525 275.775 451.595 276.833 457.811 282.125C462.574 286.09 464.561 292.045 464.561 298.261C464.561 306.198 460.457 313.873 451.595 317.705V318.234C461.915 321.146 467.469 329.747 467.469 339.533C467.469 346.941 465.09 352.629 460.857 356.995C455.566 362.815 446.571 365.99 431.622 365.99C425.005 365.99 419.451 365.594 415.48 365.065V277.49ZM432.813 312.814H436.517C442.733 312.814 447.496 307.523 447.496 300.244C447.496 293.765 444.454 288.736 437.308 288.736C435.458 288.736 433.871 288.869 432.813 289.265V312.814ZM432.813 352.366C433.872 352.629 435.058 352.629 436.646 352.629C443.658 352.629 449.478 348.396 449.478 339.272C449.478 330.405 443.396 325.776 436.517 325.643H432.813V352.366Z" fill="#4E596B"/>
<path d="M525.003 332.788C525.003 359.774 510.054 366.386 500.267 366.386C484.788 366.386 475.531 354.216 475.531 333.184C475.531 309.903 487.702 299.586 500.53 299.586C515.745 299.586 525.003 312.414 525.003 332.788ZM492.726 332.788C492.726 343.9 494.447 353.158 500.663 353.158C506.222 353.158 507.676 342.312 507.676 332.788C507.676 323.926 506.222 312.682 500.402 312.682C494.051 312.682 492.726 323.926 492.726 332.788Z" fill="#4E596B"/>
<path d="M582.012 332.788C582.012 359.774 567.063 366.386 557.276 366.386C541.797 366.386 532.54 354.216 532.54 333.184C532.54 309.903 544.71 299.586 557.538 299.586C572.754 299.586 582.012 312.414 582.012 332.788ZM549.734 332.788C549.734 343.9 551.455 353.158 557.671 353.158C563.23 353.158 564.684 342.312 564.684 332.788C564.684 323.926 563.23 312.682 557.41 312.682C551.06 312.682 549.734 323.926 549.734 332.788Z" fill="#4E596B"/>
<path d="M608.988 328.951H609.255C610.446 325.246 611.371 322.601 612.564 319.955L620.897 300.644H639.549L623.938 327.758L640.475 365.327H621.159L611.901 338.741L608.989 344.295V365.327H591.661V273.786H608.989V328.951H608.988Z" fill="#4E596B"/>
<path opacity="0.33" d="M955.442 36.103L693.514 222.452C693.514 222.452 135.778 211.373 91.4678 227.009C47.1638 242.645 39.3458 262.194 31.5278 290.21C23.7098 318.226 25.0118 326.049 25.0118 343.639C25.0118 361.235 24.3588 363.189 32.8298 383.387C41.3008 403.584 51.0638 419.192 51.0638 419.192C51.0638 419.192 31.5278 416.613 21.1028 371.66C10.6828 326.697 16.5408 286.303 32.1818 258.934C47.8178 231.572 87.5598 212.675 105.156 209.418C122.746 206.16 184.431 202.034 284.334 199.431C384.241 196.824 683.09 195.953 683.09 195.953L964.93 10.395L955.442 36.103Z" fill="#114968"/>
<path d="M705.37 263.271C707.529 261.974 937.27 111.182 937.27 111.182L717.063 268.615L705.37 263.271Z" fill="#737475"/>
<path d="M1124.66 285.399C1122.92 283.839 967.875 259.209 961.282 259.566C957.211 259.791 856.889 238.787 780.693 222.674L734.544 247.968C734.544 247.968 722.04 252.054 724.138 260.677C768.051 276.117 827.21 296.062 831.796 299.656C841.001 306.869 868.745 351.088 914.317 368.449C959.88 385.801 1002.93 387.322 1028.6 383.17C1054.27 379.023 1060.22 377.044 1063.21 371.366C1066.21 365.698 1064.73 358.62 1064.73 358.62C1064.73 358.62 975.245 344.199 975.463 338.131C975.688 332.058 1005.39 300.696 1011.71 295.395C1018.04 290.089 1030.66 289.408 1046.31 293.507C1061.96 297.621 1106.47 305.667 1114.28 307.446C1122.09 309.228 1130.85 308.199 1130.52 302.154C1130.19 296.115 1126.39 286.963 1124.66 285.399Z" fill="#737475"/>
<path d="M1013.32 277.677C1027.88 275.417 1086.63 288.389 1086.63 288.389L1132.59 296.178C1132.59 296.178 1104.8 258.018 1050.63 247.736C996.448 237.454 937.032 252.441 913.235 247.121C900.683 244.318 846.197 225.403 797.492 208.149L732.88 247.607C781.352 264.778 833.798 284.532 841.487 292.155C856.241 306.775 887.646 344.001 925.062 356.663C962.473 369.318 987.539 370.892 1010.2 368.928C1032.86 366.964 1069.04 356.92 1066.85 357.039C1064.65 357.158 975.329 335.568 970.124 334.382C964.919 333.194 960.333 329.772 963.636 322.984C966.936 316.189 998.751 279.937 1013.32 277.677Z" fill="#F2F2F2"/>
<path fill-rule="evenodd" clip-rule="evenodd" d="M540.579 89.567L523.42 98.72H483.251L483.286 98.699H391.179C395.705 107.103 413.535 114.983 441.838 120.803L466.509 106.566H506.662L472.675 125.768L472.704 125.77L457.891 133.664C385.861 125.205 345.455 107.965 352.547 90.501H498.343L506.96 86.065L507.225 85.948L560.537 56.645H601.69L540.579 89.567Z" fill="white"/>
<path fill-rule="evenodd" clip-rule="evenodd" d="M604.776 83.8339H564.611L598.595 64.6269L598.572 64.6249L613.366 56.7349C685.403 65.1989 725.82 82.4389 718.729 99.8979H572.925L564.318 104.334L564.066 104.448L510.713 133.768H469.554L530.713 100.835L547.859 91.6849H588.011L587.983 91.7049H680.098C675.572 83.3009 657.727 75.4179 629.437 69.5999L604.776 83.8339Z" fill="white"/>
</svg>
